<svg height="512" viewBox="0 0 512 512" width="512" xmlns="http://www.w3.org/2000/svg"><g id="filled_outline" data-name="filled outline"><path d="m288 136a8 8 0 0 1 -8-8v-24h-32v24a8 8 0 0 1 -16 0v-24a16.019 16.019 0 0 1 16-16h32a16.019 16.019 0 0 1 16 16v24a8 8 0 0 1 -8 8z" fill="#d18d28"/><path d="m184 128a8 8 0 0 1 -8-8v-16a16 16 0 0 0 -32 0v16a8 8 0 0 1 -16 0v-16a32 32 0 0 1 64 0v16a8 8 0 0 1 -8 8z" fill="#5f4623"/><path d="m488 400h-456a267.955 267.955 0 0 1 -8-64.985v-111.015h416l24.914 41.523a162 162 0 0 1 23.086 83.348z" fill="#eaeae8"/><path d="m328 304v80h-299.48q-1.515-8.085-2.51-16.25a267.019 267.019 0 0 1 -2.01-32.73v-31.02z" fill="#eaeae8"/><path d="m328 304v67s-301.32 6.19-301.99.75a335.985 335.985 0 0 1 -2.01-36.73v-31.02z" fill="#02b6b9"/><path d="m224 256h104v48h-104z" fill="#8feaff"/><circle cx="88" cy="392" fill="#eaeae8" r="32"/><path d="m88 432a40 40 0 1 1 40-40 40.045 40.045 0 0 1 -40 40zm0-64a24 24 0 1 0 24 24 24.028 24.028 0 0 0 -24-24z" fill="#422509"/><path d="m56 256h128v48h-128z" fill="#8feaff"/><path d="m56 192h352a32 32 0 0 1 32 32 0 0 0 0 1 0 0h-416a0 0 0 0 1 0 0 32 32 0 0 1 32-32z" fill="#cbcbcb"/><path d="m220.33 212.85v215.36a36.188 36.188 0 0 1 -7.99 3.79h-.01a36.719 36.719 0 0 1 -8-3.79v-215.36a56.58 56.58 0 0 1 8-4.85h.01a56.473 56.473 0 0 1 7.99 4.85z" fill="#e82f3e"/><path d="m144.168 432a63.663 63.663 0 0 1 -34.968-51.653l-1.674-20.088a440.759 440.759 0 0 1 .665-80.457 91.082 91.082 0 0 1 35.98-63.8 91.082 91.082 0 0 1 35.98 63.8 440.848 440.848 0 0 1 .665 80.457l-1.674 20.088a63.663 63.663 0 0 1 -34.974 51.653z" fill="#fbb540"/><path d="m150.17 222.77v204.45a61.705 61.705 0 0 1 -8 4.78 62.384 62.384 0 0 1 -8-4.78v-204.46a89.549 89.549 0 0 1 8-6.76 89.654 89.654 0 0 1 8 6.77z" fill="#fbb540"/><path d="m152.17 222.77v204.45a61.705 61.705 0 0 1 -8 4.78 62.384 62.384 0 0 1 -8-4.78v-204.46a89.549 89.549 0 0 1 8-6.76 89.654 89.654 0 0 1 8 6.77z" fill="#d18d28"/><path d="m112 144h96v48h-96z" fill="#5f4623"/><path d="m208 144-48 16-48-16a32 32 0 0 1 32-32h32a32 32 0 0 1 32 32z" fill="#8f6934"/><path d="m208 128h112v64h-112z" fill="#fbb540"/><path d="m368 328h16" fill="none" stroke="#000" stroke-linecap="round" stroke-linejoin="round" stroke-width="16"/><path d="m328 368h120l16 32h-136z" fill="#009193"/><path d="m328 304h51.181a133.728 133.728 0 0 1 108.819 56v16h-160z" fill="#02b6b9"/><path d="m464 400h24v-24h-40z" fill="#cbcbcb"/><path d="m264 336h-16a8 8 0 0 1 0-16h16a8 8 0 0 1 0 16z" fill="#009193"/><path d="m288 168h-8a8 8 0 0 1 0-16h8a8 8 0 0 1 0 16z" fill="#e82f3e"/><path d="m248 176h-8a8 8 0 0 1 0-16h8a8 8 0 0 1 0 16z" fill="#0296e5"/><path d="m481.65 304h-121.65v-48h99.2l5.71 9.52a161.4 161.4 0 0 1 16.74 38.48z" fill="#43dcfe"/><path d="m465.65 304h-105.65v-48h83.2l5.71 9.52a161.4 161.4 0 0 1 16.74 38.48z" fill="#8feaff"/><path d="m320 304h8v96h-8z" fill="#009193"/><path d="m320 224h8v80h-8z" fill="#cbcbcb"/><circle cx="392" cy="392" fill="#eaeae8" r="32"/><path d="m392 432a40 40 0 1 1 40-40 40.045 40.045 0 0 1 -40 40zm0-64a24 24 0 1 0 24 24 24.028 24.028 0 0 0 -24-24z" fill="#422509"/><path d="m212.335 432a36.964 36.964 0 0 1 -25.235-33.268l-6.769-138.955a57.889 57.889 0 0 1 32-51.777 57.889 57.889 0 0 1 32 51.777l-6.769 138.955a36.964 36.964 0 0 1 -25.227 33.268z" fill="#e82f3e"/><path d="m220.33 212.85v215.36a36.188 36.188 0 0 1 -7.99 3.79h-.01a36.719 36.719 0 0 1 -8-3.79v-215.36a56.58 56.58 0 0 1 8-4.85h.01a56.473 56.473 0 0 1 7.99 4.85z" fill="#961b20"/><path d="m471.774 261.407-23.848-39.746a40.047 40.047 0 0 0 -39.926-37.661h-80v-56a8 8 0 0 0 -8-8h-24v-16a16.019 16.019 0 0 0 -16-16h-32a16.019 16.019 0 0 0 -16 16v16h-24.021a40.231 40.231 0 0 0 -15.979-12.65v-3.35a32 32 0 0 0 -64 0v3.35a40.051 40.051 0 0 0 -24 36.65v40h-48a40.045 40.045 0 0 0 -40 40v111.016a276.171 276.171 0 0 0 8.239 66.924 8 8 0 0 0 7.761 6.06h19.35a39.976 39.976 0 0 0 65.4 11.8 71.448 71.448 0 0 0 23.845 19.355 8 8 0 0 0 7.155 0 71.97 71.97 0 0 0 32.319-32.734 44.632 44.632 0 0 0 29.741 33.169 8.011 8.011 0 0 0 5.06 0 44.631 44.631 0 0 0 29.371-31.59h111.109a39.984 39.984 0 0 0 73.3 0h59.35a8 8 0 0 0 8-8v-51.129a170.033 170.033 0 0 0 -24.226-87.464zm-16.619 103.015a8 8 0 0 0 -7.155-4.422h-32.028a39.916 39.916 0 0 0 -47.944 0h-32.028v-48h43.182a125.975 125.975 0 0 1 100.818 50.629v5.371h-23.056zm-19.685-132.422 9.6 16h-85.07a8 8 0 0 0 -8 8v40h-16v-64zm44.116 105.735a142.052 142.052 0 0 0 -35.078-25.735h31a153.99 153.99 0 0 1 4.078 25.735zm-111.586-41.735v-32h86.67l3.384 5.64a153.929 153.929 0 0 1 12.562 26.36zm-48-32v32h-69.42l1.559-32zm-71.368 72h15.368a8 8 0 0 0 0-16h-14.589l.39-8h70.199v48h-72.538zm71.368-88h-68.75a57.73 57.73 0 0 0 -5.511-16h74.261zm-73.317 128h73.317v16h-74.1zm1.317-272h32v16h-32zm-32 32h96v48h-96zm-56-48a16.019 16.019 0 0 1 16 16h-32a16.019 16.019 0 0 1 16-16zm-16 32h32a24.042 24.042 0 0 1 23.352 18.449l-39.352 13.118-39.352-13.118a24.042 24.042 0 0 1 23.352-18.449zm-24 35.1 37.47 12.49a8.011 8.011 0 0 0 5.06 0l37.47-12.49v28.9h-80zm-64 44.9h352a24.042 24.042 0 0 1 22.629 16h-197.1a73.543 73.543 0 0 0 -17.621-12.155 8 8 0 0 0 -7.156 0 73.543 73.543 0 0 0 -17.616 12.155h-34.488a98.3 98.3 0 0 0 -7.681-6.4 8 8 0 0 0 -9.6 0 98.3 98.3 0 0 0 -7.681 6.4h-98.315a24.042 24.042 0 0 1 22.629-16zm119.577 39.819q-2.292-4.021-4.951-7.819h8.305a56.951 56.951 0 0 0 -3.354 7.819zm-111.551 120.181h-30.796c-.8-8.3-1.23-16.64-1.23-24.984v-23.016h66.163c-.359 13.863-.078 27.75.842 41.562a39.808 39.808 0 0 0 -34.979 6.438zm36.2-80.995q-.846 8.475-1.364 16.995h-34.862v-32h38.917a98.457 98.457 0 0 0 -2.69 15.006zm8.361-31.005h-52.587a8 8 0 0 0 -8 8v40h-16v-64h85.709a99.57 99.57 0 0 0 -9.122 16zm-70.264 144c-1.19-5.3-2.2-10.638-3.051-16h16.078a39.759 39.759 0 0 0 -3.35 16zm49.677 24a24 24 0 1 1 11.5-45.071 8.023 8.023 0 0 0 .917.421l.805 9.661a71.254 71.254 0 0 0 6.6 24.5 24.04 24.04 0 0 1 -19.822 10.489zm29.168-36.317-1.668-20.083a433.845 433.845 0 0 1 .653-79 83.3 83.3 0 0 1 20.019-46.272v182.746a56.025 56.025 0 0 1 -19.004-37.391zm55.672-20.083-1.673 20.087a56.022 56.022 0 0 1 -19 37.391v-182.752a83.3 83.3 0 0 1 20.02 46.272 433.845 433.845 0 0 1 .653 79.002zm22.26 38.742-6.76-138.752a49.693 49.693 0 0 1 10.271-30.183 7.845 7.845 0 0 0 .757-.946 49.442 49.442 0 0 1 4.972-5.32v195.064a28.8 28.8 0 0 1 -9.24-19.863zm25.24 19.863v-195.064a49.578 49.578 0 0 1 16 36.449l-6.759 138.752a28.8 28.8 0 0 1 -9.246 19.863zm115.66-26.205v-16h19.35a39.759 39.759 0 0 0 -3.35 16zm56 24a24 24 0 1 1 24-24 24.028 24.028 0 0 1 -24 24zm36.65-40h14.406l8 16h-19.056a39.759 39.759 0 0 0 -3.35-16zm51.35 16h-11.056l-4-8h15.056z"/><path d="m384 320h-16a8 8 0 0 0 0 16h16a8 8 0 0 0 0-16z"/><path d="m280 168h8a8 8 0 0 0 0-16h-8a8 8 0 0 0 0 16z"/><path d="m240 176h8a8 8 0 0 0 0-16h-8a8 8 0 0 0 0 16z"/></g></svg>